<?xml version="1.0" encoding="UTF-8"?>
<svg width="25px" height="16px" viewBox="0 0 25 16" version="1.1" xmlns="http://www.w3.org/2000/svg" xmlns:xlink="http://www.w3.org/1999/xlink">
    <!-- Generator: Sketch 40.3 (33839) - http://www.bohemiancoding.com/sketch -->
    <title>Google-Circular96x96</title>
    <desc>Created with Sketch.</desc>
    <defs></defs>
    <g id="Working" stroke="none" stroke-width="1" fill="none" fill-rule="evenodd">
        <g id="Social-Media-Icons" transform="translate(-40.000000, -5.000000)" fill="#FFFFFF">
            <g id="Google-Circular96x96" transform="translate(39.687545, 5.245960)">
                <g id="G+" transform="translate(0.970672, 0.449206)">
                    <g id="Icons">
                        <g>
                            <g id="G+">
                                <g id="logo_google_plus_32px_clr">
                                    <path d="M7.64246051,6.56807258 L7.64246051,9.14753381 L11.9091029,9.14753381 C11.7371476,10.2545526 10.6194377,12.3933559 7.64246051,12.3933559 C5.0738773,12.3933559 2.97817133,10.2653003 2.97817133,7.64284809 C2.97817133,5.02039584 5.0738773,2.89234032 7.64246051,2.89234032 C9.10408108,2.89234032 10.0820772,3.51571012 10.6409321,4.05309788 L12.682902,2.08625869 C11.3717424,0.861014605 9.67368321,0.119419501 7.64246051,0.119419501 C3.4832902,0.119419501 0.119413445,3.48346686 0.119413445,7.64284809 C0.119413445,11.8022293 3.4832902,15.1662767 7.64246051,15.1662767 C11.9843334,15.1662767 14.8645857,12.1139142 14.8645857,7.81481217 C14.8645857,7.32041544 14.8108496,6.94424401 14.7463664,6.56807258 L7.64246051,6.56807258 L7.64246051,6.56807258 L7.64246051,6.56807258 Z" id="Shape"></path>
                                    <polyline id="Shape" points="23.7632756 6.56807258 21.6138336 6.56807258 21.6138336 4.41852155 19.4643916 4.41852155 19.4643916 6.56807258 17.3149496 6.56807258 17.3149496 8.7176236 19.4643916 8.7176236 19.4643916 10.8671746 21.6138336 10.8671746 21.6138336 8.7176236 23.7632756 8.7176236"></polyline>
                                </g>
                            </g>
                        </g>
                    </g>
                </g>
            </g>
        </g>
    </g>
</svg>