<?xml version="1.0" encoding="UTF-8"?>
<svg width="24px" height="24px" viewBox="0 0 24 24" version="1.1" xmlns="http://www.w3.org/2000/svg" xmlns:xlink="http://www.w3.org/1999/xlink">
    <!-- Generator: Sketch 40.3 (33839) - http://www.bohemiancoding.com/sketch -->
    <title>LinkedInSansSquare-Circular96x96</title>
    <desc>Created with Sketch.</desc>
    <defs></defs>
    <g id="Working" stroke="none" stroke-width="1" fill="none" fill-rule="evenodd">
        <g id="Social-Media-Icons" transform="translate(-86.000000, -1.000000)" fill="#FFFFFF">
            <g id="LinkedInSansSquare-Circular96x96" transform="translate(85.248634, 0.366342)">
                <g id="In-White-2in-R" transform="translate(0.970672, 0.970975)">
                    <g id="Group-3">
                        <path d="M23.6465262,23.6483361 L18.8262421,23.6483361 L18.8262421,16.1005719 C18.8262421,14.2998501 18.7932698,11.9848621 16.3198932,11.9848621 C13.809705,11.9848621 13.4253289,13.9457134 13.4253289,15.9702551 L13.4253289,23.6483361 L8.60527069,23.6483361 L8.60527069,8.12752752 L13.2324633,8.12752752 L13.2324633,10.2480565 L13.2966013,10.2480565 C13.9402393,9.02800138 15.5136519,7.74131977 17.8603335,7.74131977 C22.7447555,7.74131977 23.6465262,10.9558782 23.6465262,15.1348267 L23.6465262,23.6483361 L23.6465262,23.6483361 Z M3.16935256,6.00586928 C1.62326633,6.00586928 0.371898553,4.75216213 0.371898553,3.20823455 C0.371898553,1.66543622 1.62326633,0.412180785 3.16935256,0.412180785 C4.7113737,0.412180785 5.96454818,1.66543622 5.96454818,3.20823455 C5.96454818,4.75216213 4.7113737,6.00586928 3.16935256,6.00586928 L3.16935256,6.00586928 Z M0.756500488,23.6483361 L5.58017209,23.6483361 L5.58017209,8.12752752 L0.756500488,8.12752752 L0.756500488,23.6483361 Z" id="Fill-1"></path>
                    </g>
                </g>
            </g>
        </g>
    </g>
</svg>