<?xml version="1.0" encoding="UTF-8"?>
<svg width="25px" height="20px" viewBox="0 0 25 20" version="1.1" xmlns="http://www.w3.org/2000/svg" xmlns:xlink="http://www.w3.org/1999/xlink">
    <!-- Generator: Sketch 40.3 (33839) - http://www.bohemiancoding.com/sketch -->
    <title>Twitter-Circular96x96</title>
    <desc>Created with Sketch.</desc>
    <defs></defs>
    <g id="Working" stroke="none" stroke-width="1" fill="none" fill-rule="evenodd">
        <g id="Social-Media-Icons" transform="translate(-131.000000, -2.000000)" fill="#FFFFFF">
            <g id="Twitter-Circular96x96" transform="translate(130.809723, 2.126402)">
                <g id="Logo__x2014__FIXED" transform="translate(0.970672, 0.210091)">
                    <path d="M7.50871745,19.4510484 C16.5172678,19.4510484 21.4466548,11.9801644 21.4466548,5.51240418 C21.4466548,5.30222586 21.4466548,5.09204754 21.4371017,4.88186922 C22.3924093,4.19401289 23.2235269,3.32463892 23.8826891,2.34062223 C23.0038061,2.73231819 22.0580516,2.99026431 21.0645318,3.1144606 C22.0771578,2.51258631 22.8509569,1.54767674 23.2235269,0.401249525 C22.2777724,0.964909571 21.2269341,1.3661591 20.1092242,1.58589098 C19.2112351,0.630534967 17.940676,0.0382142404 16.5363739,0.0382142404 C13.8328535,0.0382142404 11.6356461,2.23553307 11.6356461,4.93919058 C11.6356461,5.32133298 11.6834115,5.69392183 11.7598361,6.05695711 C7.69022589,5.85633235 4.0791633,3.89785253 1.66223516,0.936248891 C1.24189983,1.66231946 1.00307294,2.50303275 1.00307294,3.4010674 C1.00307294,5.1016011 1.87240282,6.60151004 3.18117419,7.48043757 C2.37871583,7.45177689 1.62402286,7.232045 0.964860639,6.86900972 L0.964860639,6.93588464 C0.964860639,9.30516755 2.65575503,11.2923081 4.89117472,11.7413254 C4.48039247,11.8559681 4.05050407,11.9132895 3.60150951,11.9132895 C3.28625802,11.9132895 2.9805596,11.8846288 2.68441425,11.8273074 C3.30536417,13.7762337 5.12044854,15.1901606 7.26033748,15.2283748 C5.57899617,16.5467661 3.46776646,17.330158 1.1750283,17.330158 C0.783352202,17.330158 0.391676101,17.3110509 0.00955307563,17.2632831 C2.16854817,18.6389958 4.74787859,19.4510484 7.50871745,19.4510484" id="Shape"></path>
                </g>
            </g>
        </g>
    </g>
</svg>