<?xml version="1.0" encoding="UTF-8"?>
<svg width="25px" height="18px" viewBox="0 0 25 18" version="1.1" xmlns="http://www.w3.org/2000/svg" xmlns:xlink="http://www.w3.org/1999/xlink">
    <!-- Generator: Sketch 40.3 (33839) - http://www.bohemiancoding.com/sketch -->
    <title>YouTube-Circular96x96</title>
    <desc>Created with Sketch.</desc>
    <defs>
        <polygon id="path-1" points="0.00140211482 16.8014592 23.8698364 16.8014592 23.8698364 0.0134843547 0.00140211482 0.0134843547"></polygon>
    </defs>
    <g id="Working" stroke="none" stroke-width="1" fill="none" fill-rule="evenodd">
        <g id="Social-Media-Icons" transform="translate(-177.000000, -3.000000)">
            <g id="YouTube-Circular96x96" transform="translate(176.370812, 3.126402)">
                <g id="YouTube_light_color_icon" transform="translate(0.970672, 0.329649)">
                    <mask id="mask-2" fill="white">
                        <use xlink:href="#path-1"></use>
                    </mask>
                    <g id="Clip-2"></g>
                    <path d="M9.47063128,11.5044915 L9.46953296,4.79736882 L15.9192611,8.16261504 L9.47063128,11.5044915 L9.47063128,11.5044915 Z M23.6314768,3.63544745 C23.6314768,3.63544745 23.3982584,1.99047303 22.6825255,1.26608041 C21.7748431,0.315328245 20.7574219,0.310607552 20.2908448,0.254964141 C16.9506101,0.0134843547 11.9400826,0.0134843547 11.9400826,0.0134843547 L11.929707,0.0134843547 C11.929707,0.0134843547 6.91929642,0.0134843547 3.57894481,0.254964141 C3.11234437,0.310607552 2.09529702,0.315328245 1.18728746,1.26608041 C0.471601319,1.99047303 0.238710048,3.63544745 0.238710048,3.63544745 C0.238710048,3.63544745 0,5.56719226 0,7.4989137 L0,9.30990694 C0,11.241605 0.238710048,13.1733265 0.238710048,13.1733265 C0.238710048,13.1733265 0.471601319,14.8183242 1.18728746,15.5427169 C2.09529702,16.4934924 3.28802936,16.4634155 3.81926729,16.5630642 C5.72887757,16.7461897 11.9349182,16.8028614 11.9349182,16.8028614 C11.9349182,16.8028614 16.9506101,16.7953129 20.2908448,16.5538565 C20.7574219,16.4981897 21.7748431,16.4934924 22.6825255,15.5427169 C23.3982584,14.8183242 23.6314768,13.1733265 23.6314768,13.1733265 C23.6314768,13.1733265 23.8698364,11.241605 23.8698364,9.30990694 L23.8698364,7.4989137 C23.8698364,5.56719226 23.6314768,3.63544745 23.6314768,3.63544745 L23.6314768,3.63544745 Z" id="Fill-3" fill="#FFFFFF" mask="url(#mask-2)"></path>
                </g>
            </g>
        </g>
    </g>
</svg>